<svg width="22" height="21" viewBox="0 0 22 21" fill="none" xmlns="http://www.w3.org/2000/svg">
<mask id="mask0_331_90" style="mask-type:alpha" maskUnits="userSpaceOnUse" x="0" y="0" width="22" height="21">
<path d="M1.2796 0.0706806C0.686945 0.233124 0.220006 0.715748 0.0516386 1.34198C0.0134754 1.48795 0.0112305 1.85756 0.0112305 10.5001C0.0112305 19.1425 0.0134754 19.5122 0.0516386 19.6581C0.145924 20.0089 0.356945 20.3526 0.612863 20.5763C0.776741 20.7175 1.09103 20.8847 1.31327 20.9459C1.46368 20.9859 1.73082 20.9883 7.91327 20.9883H14.3561L14.538 20.9365C15.0498 20.7929 15.4314 20.468 15.6582 19.9759C15.8378 19.5875 15.8288 19.7829 15.822 16.4516L15.8153 13.4923L14.9892 14.4552L14.1653 15.4205V17.3274V19.2344H7.91327H1.66123V10.5001V1.76575H7.91327H14.1653L14.1698 3.24658L14.1765 4.72741L15.0027 3.75981L15.831 2.79221L15.822 2.12124C15.8131 1.49736 15.8086 1.43615 15.7614 1.28312C15.6043 0.779312 15.2923 0.404985 14.85 0.188393C14.4886 0.00946999 15.0857 0.0235958 7.89756 0.0259495C1.59388 0.0259495 1.44348 0.0283031 1.2796 0.0706806Z" fill="#00C851"/>
<path d="M18.9268 1.30644C18.8482 1.33705 18.7472 1.3912 18.7023 1.42887C18.6574 1.46653 18.3655 1.79378 18.0558 2.15633L17.4878 2.81317L17.5394 2.86261C17.7168 3.04153 20.6823 5.81485 20.6935 5.8125C20.7294 5.81014 21.8137 4.51059 21.8721 4.4023C21.9978 4.17393 22.027 3.93615 21.9664 3.68425C21.8945 3.39938 21.8541 3.35465 20.8349 2.39176C20.3141 1.89736 19.8292 1.45476 19.7619 1.40768C19.6945 1.35824 19.5868 1.30174 19.5239 1.2829C19.3511 1.22875 19.0996 1.23817 18.9268 1.30644ZM20.3253 3.10745C20.7878 3.54064 21.1672 3.90555 21.1672 3.91967C21.1672 3.94086 21.0662 4.06328 20.716 4.46822L20.6284 4.56945L20.4892 4.44232C20.0604 4.0468 18.7315 2.79434 18.7135 2.76844C18.6978 2.7449 18.7719 2.64602 18.9694 2.41766L19.2455 2.09748L19.3645 2.20813C19.4296 2.26934 19.8629 2.67427 20.3253 3.10745Z" fill="#00C851"/>
<path d="M16.8165 3.60448C16.6055 3.84932 16.4326 4.0612 16.4326 4.07297C16.4326 4.08474 17.1128 4.73217 17.9434 5.51378C18.7718 6.29539 19.4879 6.96871 19.5328 7.01109L19.6159 7.08643L19.9998 6.63912C20.2108 6.39192 20.3836 6.18004 20.3836 6.17062C20.3836 6.15414 19.5194 5.3325 17.3957 3.33844L17.2004 3.15481L16.8165 3.60448Z" fill="#00C851"/>
<path d="M3.66584 4.13154C3.33135 4.23984 3.10237 4.54354 3.07993 4.90845C3.05523 5.31573 3.28646 5.67123 3.65686 5.79129C3.79605 5.83838 3.87237 5.83838 7.91319 5.83838C11.8777 5.83838 12.0326 5.83602 12.165 5.79365C12.504 5.683 12.7509 5.33457 12.7509 4.96495C12.7509 4.69892 12.596 4.39286 12.3828 4.24454C12.1605 4.08681 12.4726 4.09623 7.90421 4.09858C4.5436 4.09858 3.74217 4.10564 3.66584 4.13154Z" fill="#00C851"/>
<path d="M12.7734 8.3246C10.9527 10.4529 9.42845 12.2374 9.38805 12.2892L9.31396 12.381L9.39927 12.4634C9.44641 12.5081 10.167 13.1861 10.9999 13.9678L12.5129 15.3921L12.605 15.2814C12.9911 14.8294 19.2117 7.55476 19.2521 7.50767L19.306 7.44882L17.7121 5.94915C16.8366 5.12516 16.1115 4.44949 16.1025 4.44949C16.0936 4.45184 14.594 6.194 12.7734 8.3246ZM16.4011 5.99859C16.4483 6.03626 16.5313 6.11631 16.5852 6.17516C16.666 6.26933 16.6795 6.29994 16.6795 6.38469C16.6795 6.50476 16.6548 6.54478 16.4325 6.8014C16.2529 7.00857 16.1789 7.06272 16.0801 7.06272C16.0038 7.06036 15.9566 7.03211 15.8062 6.89792C15.6221 6.73077 15.5817 6.60599 15.667 6.46238C15.7276 6.35644 16.0397 6.00095 16.1003 5.96563C16.1901 5.91384 16.3046 5.92561 16.4011 5.99859ZM15.007 7.49826C15.1238 7.5477 15.328 7.76193 15.3572 7.86081C15.3774 7.92909 15.3752 7.9644 15.3483 8.02797C15.3123 8.11743 11.496 12.5882 11.4174 12.6353C11.3927 12.6517 11.3276 12.6635 11.276 12.6659C11.1929 12.6659 11.1615 12.6494 11.0403 12.5411C10.8629 12.3857 10.8046 12.2727 10.8383 12.1526C10.8585 12.0891 11.3725 11.4722 12.7958 9.80779C13.8599 8.56474 14.7466 7.53592 14.7668 7.51944C14.8005 7.4959 14.8566 7.47471 14.9127 7.4653C14.9217 7.4653 14.9644 7.47942 15.007 7.49826Z" fill="#00C851"/>
<path d="M3.71549 7.77858C3.46855 7.84215 3.26202 8.01636 3.14977 8.25885C3.09365 8.37892 3.08691 8.41894 3.08691 8.62847C3.08691 8.84742 3.0914 8.87331 3.15875 9.00751C3.24855 9.18878 3.43936 9.37242 3.60998 9.4454L3.73793 9.49955L6.91671 9.50661L10.0977 9.51367L10.8341 8.65201C11.2404 8.17645 11.5771 7.78094 11.5794 7.76681C11.5928 7.7315 3.85467 7.74327 3.71549 7.77858Z" fill="#00C851"/>
<path d="M3.68167 11.4088C3.42351 11.4794 3.18106 11.729 3.10473 12.0044C2.99698 12.3952 3.18779 12.8449 3.54024 13.0332L3.67045 13.1015L5.61228 13.1062L7.55412 13.1133L7.93575 12.4046C8.14677 12.0138 8.35555 11.6207 8.40269 11.5336L8.49024 11.3711L6.14657 11.3735C4.1733 11.3735 3.78494 11.3805 3.68167 11.4088Z" fill="#00C851"/>
<path d="M8.36652 14.8625C8.03203 16.0844 7.80978 16.9296 7.81203 16.9861C7.81427 17.1673 7.94223 17.3604 8.10162 17.4263C8.27223 17.4969 8.2857 17.4899 10.2388 16.6517C11.2579 16.2139 12.093 15.8442 12.093 15.8325C12.0953 15.8136 8.94795 12.8308 8.92774 12.8308C8.9255 12.8308 8.67182 13.7442 8.36652 14.8625ZM10.1602 14.7825C10.6608 15.2533 11.0626 15.6465 11.0514 15.6559C11.0379 15.6677 10.1557 16.0514 9.66182 16.2609C9.63264 16.2727 8.79978 15.4982 8.79978 15.4605C8.79978 15.3946 9.21509 13.9137 9.23305 13.9208C9.24203 13.9232 9.65958 14.3116 10.1602 14.7825Z" fill="#00C851"/>
<path d="M3.65487 15.0769C3.42589 15.1617 3.24855 15.3312 3.14528 15.5596C3.09589 15.6726 3.08691 15.722 3.08691 15.9151C3.08691 16.0987 3.09589 16.1599 3.13855 16.2541C3.24855 16.506 3.4461 16.6825 3.69304 16.7508C3.80528 16.7814 4.03202 16.7861 5.20161 16.7861H6.57773V16.7273C6.57773 16.6849 6.95487 15.2606 7.01549 15.0722C7.02896 15.0299 3.77385 15.0322 3.65487 15.0769Z" fill="#00C851"/>
</mask>
<g mask="url(#mask0_331_90)">
<rect x="-4" y="-4" width="26" height="28" fill="#FF9040"/>
</g>
</svg>
