<?xml version="1.0" encoding="UTF-8"?>
<svg version="1.1" xmlns="http://www.w3.org/2000/svg" width="512" height="512">
<path d="M0 0 C52.965 -0.309375 105.93 -0.61875 160.5 -0.9375 C185.57581055 -1.14234009 185.57581055 -1.14234009 211.15820312 -1.35131836 C231.58886719 -1.41906738 231.58886719 -1.41906738 241.15661621 -1.43165588 C247.83255603 -1.44561902 254.50660316 -1.50052425 261.18200684 -1.58363342 C268.88984684 -1.67945378 276.59587832 -1.72246363 284.30431768 -1.70167426 C288.24437548 -1.69267587 292.18039824 -1.70642708 296.11970615 -1.78822696 C321.82961946 -2.29653579 321.82961946 -2.29653579 330.54807615 5.19075245 C333.06333829 7.70723066 335.33915081 10.32056281 337.51489162 13.1342963 C339.81131274 16.01923147 342.43435386 18.47998664 345.09375 21.03125 C346.8985507 22.85147635 348.70070935 24.67432679 350.5 26.5 C357.49570925 33.65260401 357.49570925 33.65260401 364.88671875 40.38671875 C370.68428672 45.35082213 375.95340842 50.88556159 381.3125 56.3125 C383.45152309 58.47816178 385.59388197 60.64044431 387.73828125 62.80078125 C388.22267166 63.29347 388.70706207 63.78615875 389.20613098 64.29377747 C391.38566507 66.48915375 393.41200737 68.27467158 396 70 C396.29800231 72.46539826 396.39677872 74.68083224 396.36914349 77.14897346 C396.37260502 77.89754232 396.37606655 78.64611118 396.37963298 79.41736394 C396.38763966 81.95195151 396.374061 84.48597923 396.36076355 87.02053833 C396.3620705 88.84542757 396.36469488 90.67031627 396.36853105 92.49520195 C396.37526968 97.53025021 396.36319714 102.56510865 396.34819686 107.6001327 C396.33528922 113.02209788 396.33962221 118.44405162 396.34190369 123.86602783 C396.34347977 133.26673054 396.33403563 142.66737097 396.31719017 152.06805801 C396.29285003 165.66000734 396.28500002 179.25192643 396.2812262 192.84389518 C396.27465387 214.89383132 396.25467154 236.94373425 396.22631836 258.99365234 C396.19877622 280.41812979 396.17757063 301.8425983 396.16479492 323.26708984 C396.163983 324.61375686 396.16317088 325.96042387 396.16235858 327.30709088 C396.1561021 337.73297833 396.15024975 348.15886601 396.14449489 358.58475375 C396.11617355 409.72319966 396.05582347 460.86156244 396 512 C265.32 512 134.64 512 0 512 C0 343.04 0 174.08 0 0 Z M35 35 C35 180.86 35 326.72 35 477 C142.58 477 250.16 477 361 477 C361 348.96 361 220.92 361 89 C342.19 89 323.38 89 304 89 C304 71.18 304 53.36 304 35 C215.23 35 126.46 35 35 35 Z " fill="#000000" transform="translate(58,0)"/>
<path d="M0 0 C0.90588179 -0.00297112 1.81176358 -0.00594224 2.74509633 -0.0090034 C5.78117425 -0.01767646 8.81721268 -0.01919746 11.853302 -0.02069092 C14.02984705 -0.02532 16.20639128 -0.03034478 18.38293457 -0.03573608 C24.29614275 -0.04885155 30.20933958 -0.05530313 36.12256002 -0.05974674 C39.81639986 -0.06267823 43.51023659 -0.06678314 47.20407486 -0.07125092 C58.76004836 -0.08492225 70.31601478 -0.09459126 81.87199581 -0.09845281 C95.21448715 -0.10293584 108.55685456 -0.12049667 121.89931476 -0.1494534 C132.2119683 -0.17105851 142.52459302 -0.18115643 152.83726895 -0.18249393 C158.99724392 -0.18354259 165.15712266 -0.18946382 171.31707382 -0.20731354 C177.11024896 -0.22377437 182.9032553 -0.22595932 188.69644547 -0.21717453 C190.82208966 -0.21640315 192.94774285 -0.2207601 195.07336426 -0.23063278 C197.97635712 -0.24332502 200.87874962 -0.23749015 203.78173828 -0.22705078 C204.62172831 -0.23510719 205.46171835 -0.24316359 206.32716262 -0.25146413 C212.66742696 -0.19818298 217.46931379 0.92723698 222.39285278 5.20294189 C225.77481452 9.23528089 225.35238094 13.05109043 225.29129028 18.15216064 C224.91931203 22.21735152 223.90222109 24.25607359 221.01785278 27.14044189 C215.43589492 30.10304218 210.92928305 30.57058023 204.67457581 30.52139282 C203.29375552 30.52841278 203.29375552 30.52841278 201.88503987 30.53557456 C198.81124284 30.54750712 195.73789308 30.53807403 192.66409302 30.52862549 C190.45607239 30.53269192 188.2480538 30.53803421 186.04003906 30.54455566 C180.05052151 30.5582256 174.06115907 30.55293206 168.07163882 30.54341841 C161.80305995 30.53582116 155.53449432 30.54286752 149.26591492 30.5475769 C138.06615463 30.55338333 126.86645127 30.5440636 115.6667046 30.52879889 C105.51654785 30.51539298 95.36649402 30.5177273 85.21633911 30.53155518 C73.42091592 30.547617 61.62554256 30.55358214 49.83010632 30.54471838 C43.58916538 30.54004059 37.34829532 30.53942009 31.10735893 30.54932785 C25.24109078 30.55799044 19.37501712 30.55198834 13.50876999 30.53464508 C11.35529847 30.53067667 9.20181059 30.53182032 7.04834557 30.53843307 C4.11005771 30.54662434 1.17239414 30.53635595 -1.76585388 30.52139282 C-2.61906536 30.52808499 -3.47227684 30.53477715 -4.35134321 30.54167211 C-10.46835176 30.48120302 -14.66600825 29.26878581 -19.29464722 25.01544189 C-22.27983567 19.92956528 -22.28064862 15.13045126 -21.41964722 9.39044189 C-19.5351708 5.12988651 -17.85390545 3.72161405 -13.98214722 1.14044189 C-9.40184112 -0.19655155 -4.72972792 -0.00485312 0 0 Z " fill="#000000" transform="translate(158.98214721679688,189.85955810546875)"/>
<path d="M0 0 C1.38076072 -0.00551503 1.38076072 -0.00551503 2.7894156 -0.01114148 C5.88698008 -0.02219188 8.98451103 -0.02602445 12.08209229 -0.02983093 C14.29775093 -0.03609452 16.51340851 -0.04274122 18.72906494 -0.04974365 C24.75808699 -0.06716213 30.7871011 -0.07770757 36.81614208 -0.08594918 C40.58133012 -0.09109717 44.34651568 -0.09717297 48.11170197 -0.10346031 C58.53794401 -0.12033023 68.96418449 -0.13496539 79.39043808 -0.14220905 C82.09559887 -0.14411892 84.80075965 -0.14603925 87.50592041 -0.147995 C88.5144398 -0.14872061 88.5144398 -0.14872061 89.54333332 -0.14946087 C100.43456332 -0.15776095 111.32568347 -0.18309801 122.21686551 -0.21557567 C133.40072268 -0.248654 144.5845401 -0.26632576 155.76845002 -0.26985329 C162.04697771 -0.27220622 168.32533177 -0.28119854 174.60381317 -0.30631447 C180.51026246 -0.32956028 186.41642335 -0.33384232 192.32290649 -0.32355309 C194.49048063 -0.32305678 196.6580688 -0.32940495 198.82559967 -0.34310913 C201.78577258 -0.36077728 204.7449048 -0.35374652 207.70507812 -0.34057617 C208.56199619 -0.35154542 209.41891426 -0.36251466 210.30179954 -0.37381631 C216.04288305 -0.31218553 219.38067424 0.84450372 224.10650635 4.14717102 C227.66935972 8.60988263 227.73319846 12.65289856 227.58306885 18.19404602 C226.96670563 22.01347711 225.68032141 24.03423429 223.1026001 26.84248352 C217.57138035 30.45780132 211.34962238 30.4369199 204.97323608 30.40786743 C204.07522368 30.41169298 203.17721128 30.41551853 202.25198638 30.41946 C199.25437685 30.42974726 196.25696038 30.42580597 193.25933838 30.42182922 C191.10544661 30.42617807 188.95155639 30.43136179 186.79766846 30.43731689 C180.95467236 30.45069974 175.11174098 30.45128633 169.26873255 30.4487536 C164.38803966 30.44768338 159.50735985 30.45256857 154.62666976 30.45735902 C143.11066133 30.46845179 131.59468551 30.46889292 120.07867432 30.46284485 C108.20497884 30.45680473 96.33140186 30.46911764 84.4577266 30.49041492 C74.25709692 30.50803747 64.05650493 30.51403123 53.85586059 30.51077718 C47.76628197 30.50896519 41.67678787 30.51159217 35.58722305 30.52549171 C29.85966604 30.53807594 24.13229359 30.53612016 18.40473938 30.52308083 C16.30573845 30.52071679 14.2067245 30.5234435 12.10773849 30.53170395 C9.23619389 30.54218765 6.36526669 30.53405755 3.4937439 30.52139282 C2.66872568 30.52876711 1.84370747 30.53614139 0.9936887 30.54373914 C-5.67027644 30.48216573 -12.14407214 29.41544377 -17.39349365 25.08467102 C-19.81675121 20.33912498 -20.57664633 15.33924727 -19.4520874 10.08467102 C-17.88147387 5.92030143 -15.5715177 3.53788665 -11.89349365 1.14717102 C-7.92846352 -0.17450569 -4.13399448 -0.00088025 0 0 Z " fill="#000000" transform="translate(156.89349365234375,122.85282897949219)"/>
<path d="M0 0 C0.90179824 -0.00226556 1.80359647 -0.00453111 2.73272192 -0.00686532 C5.75498396 -0.01319626 8.77720106 -0.01237654 11.79946899 -0.0115509 C13.96616168 -0.01454294 16.13285384 -0.01794558 18.29954529 -0.02172852 C24.18589797 -0.0305678 30.07223612 -0.03290659 35.9585948 -0.0335443 C40.87168139 -0.03449363 45.78476459 -0.03817219 50.69784987 -0.0417164 C62.28852804 -0.04986057 73.87919845 -0.05230065 85.46987915 -0.05158997 C97.42875087 -0.05098907 109.3875775 -0.06154344 121.34643781 -0.07733363 C131.61238263 -0.09040582 141.8783127 -0.095774 152.14426577 -0.09513456 C158.27627117 -0.09487949 164.4082365 -0.09773559 170.54023361 -0.10831261 C176.30711789 -0.11798822 182.07392374 -0.11807641 187.84081078 -0.11079597 C189.95677619 -0.10974949 192.07274648 -0.11211678 194.18870354 -0.11815643 C197.07845008 -0.12587021 199.96792534 -0.12123552 202.85766602 -0.11352539 C203.6937651 -0.11866895 204.52986418 -0.12381252 205.39129961 -0.12911195 C210.74032156 -0.09760233 216.45454322 0.03986263 220.79800415 3.53605652 C224.90266067 9.09857381 225.71178893 13.3712349 225.05581665 20.13371277 C223.29899794 24.29459918 220.72881738 26.56261226 217.05581665 29.13371277 C213.09917081 30.45259471 209.31846482 30.27829798 205.19355774 30.27415466 C203.817864 30.27861135 203.817864 30.27861135 202.41437846 30.28315806 C199.32829598 30.29185881 196.24225223 30.29335447 193.15615845 30.29484558 C190.94872962 30.29947276 188.7413016 30.30449729 186.53387451 30.30989075 C180.5276428 30.32302596 174.52142227 30.32946184 168.51517844 30.33390141 C164.76473893 30.33683019 161.01430249 30.34093462 157.26386452 30.34540558 C146.87965265 30.35751555 136.49544295 30.36789734 126.11122417 30.37128067 C125.44662638 30.37150024 124.78202858 30.3717198 124.09729146 30.37194602 C123.0980121 30.37227344 123.0980121 30.37227344 122.07854527 30.37260747 C120.72860253 30.37305094 119.37865978 30.3734975 118.02871704 30.37394714 C117.02429011 30.37427929 117.02429011 30.37427929 115.99957172 30.37461814 C105.14972014 30.37856604 94.29993573 30.39601991 83.4501101 30.41930667 C72.31032499 30.44302274 61.17056438 30.45522467 50.03075153 30.45664859 C43.77632292 30.4576979 37.52198904 30.46363261 31.26758385 30.4814682 C25.38497453 30.49791691 19.50253146 30.5001199 13.61990738 30.49132919 C11.45998121 30.49055712 9.30004622 30.4949239 7.14014244 30.50478745 C4.19290458 30.51745787 1.24625993 30.51165667 -1.70097351 30.50120544 C-2.55691347 30.50926185 -3.41285343 30.51731825 -4.29473096 30.52561879 C-9.2559683 30.48443549 -12.64110539 29.87177364 -16.94418335 27.13371277 C-21.07131171 22.67195238 -22.2599833 19.30576534 -22.1590271 13.19230652 C-21.69169076 8.71437464 -19.72538896 5.89436034 -16.56918335 2.82121277 C-11.45049593 -0.469372 -5.89016606 -0.01085171 0 0 Z " fill="#000000" transform="translate(154.94418334960938,382.8662872314453)"/>
<path d="M0 0 C0.92937982 -0.00367669 1.85875964 -0.00735338 2.81630248 -0.01114148 C5.94383995 -0.02219226 9.07134422 -0.0260245 12.19889832 -0.02983093 C14.43588365 -0.03609444 16.67286793 -0.04274114 18.90985107 -0.04974365 C24.99665541 -0.06716181 31.08345189 -0.07770729 37.17027497 -0.08594918 C40.97096726 -0.0910968 44.77165709 -0.09717259 48.57234764 -0.10346031 C59.09552714 -0.12032952 69.6187055 -0.13496514 80.14189625 -0.14220905 C82.87215997 -0.14411893 85.60242369 -0.14603927 88.33268738 -0.147995 C89.35057208 -0.14872061 89.35057208 -0.14872061 90.38902011 -0.14946087 C101.38438956 -0.15776313 112.37965029 -0.18310424 123.37497226 -0.21557567 C134.66391957 -0.24864248 145.95281365 -0.26632459 157.24181575 -0.26985329 C163.58011457 -0.27220724 169.91824149 -0.28121287 176.25649452 -0.30631447 C182.21793192 -0.3295424 188.17908356 -0.33384958 194.14055443 -0.32355309 C196.32951176 -0.32305636 198.5184829 -0.32941691 200.70739746 -0.34310913 C203.69419247 -0.36074823 206.67995309 -0.35376092 209.66674805 -0.34057617 C210.53436085 -0.35154542 211.40197365 -0.36251466 212.29587775 -0.37381631 C217.69074164 -0.31626049 220.72718683 0.58678433 225.02384949 4.14717102 C228.65588945 8.14241497 228.46239296 12.39591646 228.31681824 17.55342102 C227.79716314 22.1541008 225.51642042 25.23669524 222.02384949 28.14717102 C218.02400641 29.48045205 214.18054039 29.29521763 210.00973511 29.29434204 C209.07627174 29.29801873 208.14280837 29.30169542 207.18105823 29.30548352 C204.03970124 29.31653452 200.89837732 29.32036658 197.75700378 29.32417297 C195.51016637 29.33043647 193.26332999 29.33708317 191.01649475 29.34408569 C184.90283175 29.361504 178.78917658 29.37204937 172.67549491 29.38029122 C168.85805166 29.38543881 165.04061085 29.3915146 161.22316933 29.39780235 C150.65366626 29.41467159 140.08416535 29.42930721 129.5146513 29.43655109 C126.77235602 29.43846097 124.03006075 29.44038131 121.2877655 29.44233704 C120.60618509 29.44282078 119.92460467 29.44330452 119.2223703 29.44380292 C108.17850213 29.4521052 97.1347422 29.47744635 86.09092131 29.50991771 C74.7522466 29.54298426 63.41364631 29.5606666 52.07491618 29.56419533 C45.708672 29.56654931 39.34259896 29.57555529 32.97640038 29.60065651 C26.98869852 29.623884 21.00128116 29.6281918 15.01354599 29.61789513 C12.81491336 29.61739839 10.61626698 29.62375924 8.41767693 29.63745117 C5.41774621 29.65508954 2.41884544 29.64810331 -0.58108521 29.63491821 C-1.45258896 29.64588746 -2.32409271 29.6568567 -3.22200567 29.66815835 C-8.61670812 29.61085244 -11.68943362 28.73031675 -15.97615051 25.14717102 C-19.06056607 20.74221057 -19.49403587 15.53700081 -18.69099426 10.33076477 C-17.44293845 6.51839755 -15.02938645 3.69912941 -11.97615051 1.14717102 C-7.9872629 -0.18245818 -4.15922176 -0.00087704 0 0 Z " fill="#000000" transform="translate(155.9761505126953,319.8528289794922)"/>
<path d="M0 0 C0.93673221 -0.0055344 1.87346442 -0.01106879 2.83858246 -0.0167709 C5.97322058 -0.03036963 9.10706145 -0.01541212 12.24168396 -0.00050354 C14.49058877 -0.00428696 16.73949125 -0.00978719 18.98838806 -0.01687622 C25.09364467 -0.03084416 31.1986199 -0.01965179 37.3038609 -0.00316501 C43.69035902 0.01067812 50.07684068 0.00422631 56.46334839 0.0007019 C67.18753175 -0.0020006 77.91157643 0.01139193 88.63572693 0.03465271 C99.66767021 0.05857836 110.69946549 0.06565444 121.73143005 0.05516052 C135.03030626 0.04253289 148.32907784 0.04504234 161.6279583 0.06081963 C166.70641109 0.06658251 171.78481437 0.06649437 176.8632679 0.06175423 C182.84115478 0.05698724 188.81883644 0.06707479 194.79668427 0.08870888 C196.99249771 0.09428043 199.18833087 0.09473869 201.38414574 0.08975601 C204.37758255 0.08381448 207.37038952 0.0962869 210.36376953 0.11352539 C211.23613977 0.10751535 212.10851 0.1015053 213.0073157 0.09531313 C218.71742819 0.15525822 221.95860978 1.22139131 226.36839294 5.00120544 C229.40698721 8.64751856 228.94713094 13.27718501 228.89964294 17.77073669 C228.50350665 21.61655987 227.22346973 23.68490621 224.61839294 26.50120544 C220.05591356 30.10262048 215.95570236 29.92497133 210.39500427 29.88215637 C209.46321004 29.88683634 208.53141581 29.89151632 207.57138538 29.89633811 C204.44758708 29.90830874 201.3242258 29.89882265 198.20042419 29.88938904 C195.96151981 29.89345381 193.72261744 29.89879516 191.48371887 29.90531921 C185.40117867 29.91900975 179.31879092 29.91368692 173.23624802 29.90418196 C166.87510004 29.8965944 160.51396525 29.90362846 154.15281677 29.90834045 C142.78519491 29.91415052 131.41765055 29.90481897 120.05004418 29.88956244 C109.74434218 29.87615928 99.43874155 29.87848739 89.13304138 29.89231873 C77.16367774 29.90837537 65.19437568 29.91434821 53.22499752 29.90548193 C46.88960269 29.90080131 40.55427769 29.90019132 34.21888733 29.9100914 C28.26318525 29.91874781 22.3076749 29.91276323 16.35199356 29.89540863 C14.16423995 29.89143672 11.97647024 29.89258982 9.78872299 29.89919662 C6.80619024 29.90737421 3.82427486 29.89713606 0.84178162 29.88215637 C-0.46196049 29.89219462 -0.46196049 29.89219462 -1.79204082 29.90243566 C-7.85463903 29.84322956 -11.14416867 28.6143417 -15.63160706 24.37620544 C-18.38324152 19.85566311 -18.92814617 15.48614984 -17.97535706 10.28245544 C-15.16799968 1.32564858 -8.54955551 -0.09437399 0 0 Z " fill="#000000" transform="translate(155.38160705566406,252.49879455566406)"/>
</svg>
