<svg width="20" height="17" viewBox="0 0 20 17" fill="none" xmlns="http://www.w3.org/2000/svg">
<path d="M0.00565149 1.14142L0.0141287 2.28668L0.87033 2.29748L1.7237 2.30469V1.15223V-0.000234842H0.861852H0L0.00565149 1.14142Z" fill="#00008B"/>
<path d="M3.63679 0.0403605C3.23554 0.177215 2.96426 0.692221 3.00382 1.23604C3.03491 1.66101 3.20163 1.97433 3.49833 2.15801L3.68765 2.27686H11.2183H18.7489L18.9071 2.18322C19.2349 1.98514 19.4242 1.60699 19.4271 1.1424C19.4271 0.904706 19.4129 0.836279 19.3338 0.627395C19.2349 0.371693 19.1162 0.224034 18.9043 0.0907807L18.7771 0.00794744L11.2748 0.000744581C5.18813 -0.00285673 3.747 0.00434613 3.63679 0.0403605Z" fill="#00008B"/>
<path d="M0 8.15223V9.30469H0.861852H1.7237V8.15223V6.99977H0.861852H0V8.15223Z" fill="#00008B"/>
<path d="M3.70988 7.02254C3.31993 7.12338 3.03453 7.53394 3.00344 8.04895C2.97236 8.52074 3.15321 8.9313 3.48665 9.14739L3.68162 9.27344H11.2151H18.7485L18.9067 9.1798C19.2402 8.98172 19.4239 8.60717 19.4267 8.13538C19.4267 7.89048 19.4154 7.83286 19.3278 7.61317C19.2232 7.35027 19.0537 7.15219 18.8531 7.05495C18.7655 7.01173 17.5702 7.00453 11.2885 7.00093C7.18555 6.99733 3.77487 7.00813 3.70988 7.02254Z" fill="#00008B"/>
<path d="M0.0927734 15.4921V16.6445H0.954626H1.81648V15.4921V14.3396H0.954626H0.0927734V15.4921Z" fill="#00008B"/>
<path d="M3.40742 14.3756C3.01747 14.4764 2.73207 14.8906 2.69816 15.4056C2.6699 15.8702 2.85357 16.2843 3.18419 16.5004L3.37916 16.6265H10.9126H18.446L18.6354 16.5076C18.9547 16.3095 19.1214 15.9602 19.1214 15.4884C19.1242 15.2435 19.1129 15.1859 19.0253 14.9662C18.9208 14.7033 18.7512 14.5052 18.5506 14.408C18.463 14.3648 17.2677 14.3576 10.9861 14.354C6.88309 14.3504 3.47241 14.3612 3.40742 14.3756Z" fill="#00008B"/>
</svg>
